<?xml version="1.0" standalone="no"?>
<!DOCTYPE svg PUBLIC "-//W3C//DTD SVG 20010904//EN"
 "http://www.w3.org/TR/2001/REC-SVG-20010904/DTD/svg10.dtd">
<svg version="1.0" xmlns="http://www.w3.org/2000/svg"
 width="300.000000pt" height="234.000000pt" viewBox="0 0 300.000000 234.000000"
 preserveAspectRatio="xMidYMid meet">

<g transform="translate(0.000000,234.000000) scale(0.100000,-0.100000)"
fill="#ed3c48" stroke="none">
<path d="M629 2072 c-15 -13 -22 -30 -22 -51 0 -29 20 -53 177 -210 l176 -177
-92 -95 c-99 -101 -201 -236 -244 -324 l-26 -54 21 -44 c85 -174 274 -388 446
-502 159 -106 295 -149 475 -148 141 1 236 24 365 87 l90 45 186 -185 c158
-157 190 -184 215 -184 39 0 74 36 74 76 0 25 -114 142 -878 906 -789 790
-880 878 -908 878 -18 0 -42 -8 -55 -18z m544 -650 l98 -98 -23 -50 c-31 -68
-30 -170 1 -242 31 -68 113 -144 182 -167 64 -22 177 -16 232 11 l38 18 89
-89 c50 -49 90 -92 90 -96 0 -9 -105 -55 -175 -75 -82 -25 -258 -25 -339 0
-124 37 -255 116 -364 220 -87 81 -232 273 -232 306 0 43 260 360 296 360 5 0
53 -44 107 -98z m314 -314 c51 -51 93 -96 93 -99 0 -13 -53 -17 -89 -7 -44 12
-89 52 -107 95 -21 48 -18 103 5 103 3 0 47 -42 98 -92z"/>
<path d="M1410 1849 c-87 -15 -123 -52 -105 -109 13 -40 47 -53 111 -41 226
42 459 -41 660 -235 69 -67 171 -194 210 -260 l26 -45 -37 -57 c-21 -31 -56
-81 -78 -110 -47 -62 -53 -105 -18 -134 27 -21 70 -24 92 -5 55 44 199 267
199 307 0 14 -16 53 -36 85 -263 437 -650 665 -1024 604z"/>
</g>
</svg>
